<svg viewBox="0 0 32 26" fill="none" xmlns="http://www.w3.org/2000/svg">
<g clip-path="url(#clip0_659_904)">
<path d="M13.53 23.0438L1.34391 16.486C0.745608 16.1626 0.655708 15.4938 1.15946 15.0798C1.55316 14.761 2.18246 14.7048 2.65211 14.9485L13.5393 20.5923C13.7404 20.6931 13.9619 20.7456 14.1864 20.7456C14.411 20.7456 14.6325 20.6931 14.8336 20.5923L25.7037 14.9298C26.178 14.6798 26.8104 14.7376 27.2041 15.0594L27.2305 15.0829C27.7296 15.497 27.6443 16.1626 27.046 16.486L14.8599 23.0454C14.6535 23.1501 14.4256 23.2043 14.1946 23.2038C13.9636 23.2033 13.7359 23.1479 13.53 23.0423V23.0438Z" fill="#BAE7FF"/>
<path d="M13.53 18.8953L1.34391 12.3375C0.745608 12.014 0.655708 11.3453 1.15946 10.9312C1.55316 10.6125 2.18246 10.5562 2.65211 10.8015L13.5424 16.4484C13.7437 16.5495 13.9654 16.6022 14.1903 16.6022C14.4152 16.6022 14.637 16.5495 14.8382 16.4484L25.7037 10.7812C26.178 10.5312 26.8104 10.589 27.2041 10.9125L27.2351 10.9359C27.7342 11.3484 27.649 12.014 27.0491 12.3375L14.8646 18.9C14.6575 19.0043 14.429 19.0582 14.1975 19.0574C13.966 19.0566 13.7379 19.0011 13.5316 18.8953H13.53Z" fill="#99DBF2"/>
<path d="M13.5297 14.7429L1.61795 8.33357C0.935945 7.96638 0.935945 7.17732 1.61795 6.807L13.5297 0.39763C13.7356 0.291609 13.9635 0.236328 14.1946 0.236328C14.4258 0.236328 14.6537 0.291609 14.8596 0.39763L26.7729 6.807C27.4518 7.17419 27.4518 7.96326 26.7729 8.33357L14.8549 14.7429C14.6499 14.8489 14.4228 14.9042 14.1923 14.9042C13.9619 14.9042 13.7348 14.8489 13.5297 14.7429Z" fill="#319EEC"/>
<path d="M21.6667 14.1619C21.8115 14.1079 21.9691 14.0986 22.1193 14.1354L30.6024 16.1416C30.9279 16.2197 31.1155 16.4854 31.0209 16.7354L29.4012 20.9697C29.3035 21.2197 28.961 21.3619 28.6355 21.2854L20.1523 19.2775C20.0118 19.2467 19.8853 19.1698 19.7927 19.0588L17.6599 16.2463C17.4801 16.0072 17.5964 15.701 17.9157 15.5838L21.6667 14.1619ZM19.4037 16.6729C19.43 17.3322 20.1275 17.8494 20.9645 17.8322C21.8031 17.8166 22.4618 17.265 22.4448 16.6057C22.4231 15.9463 21.7225 15.4291 20.8839 15.4432C20.0469 15.4635 19.3835 16.0135 19.4037 16.6729Z" fill="#FFA000"/>
<path d="M23.1284 14.1121C23.3175 14.1121 23.5004 14.1715 23.6414 14.2762L31.5092 20.0887C31.813 20.3137 31.8347 20.6824 31.5557 20.9153L26.8608 24.8449C26.5833 25.0762 26.109 25.0824 25.8068 24.8606L17.9374 19.0496C17.8717 19.0054 17.8163 18.9472 17.7751 18.8792C17.7339 18.8112 17.7078 18.735 17.6987 18.6559L17.3174 14.6762C17.2864 14.3403 17.6212 14.0574 18.0537 14.0606L23.1284 14.1121ZM18.9217 15.8903C18.4939 16.6153 18.8953 17.484 19.8191 17.8231C20.7429 18.1621 21.8465 17.8434 22.2774 17.1168C22.7099 16.3903 22.3038 15.5231 21.3784 15.184C20.4562 14.8403 19.3572 15.1606 18.9217 15.8903Z" fill="#FFCA28"/>
<path d="M18.1382 5.91955L10.6749 9.90392C10.196 10.1586 9.53879 10.0602 9.20864 9.68048C8.88314 9.30548 9.00714 8.78673 9.49074 8.52892L16.9571 4.54767C17.436 4.29298 18.0948 4.39142 18.4234 4.76955C18.7442 5.14611 18.6202 5.66486 18.1413 5.91955H18.1382Z" fill="white"/>
</g>
<defs>
<clipPath id="clip0_659_904">
<rect width="31" height="25" fill="white" transform="translate(0.824219 0.216797)"/>
</clipPath>
</defs>
</svg>
