<svg width="24" height="24" viewBox="0 0 24 24" fill="none" xmlns="http://www.w3.org/2000/svg">
<path d="M22.5 10.8C21.3 9.4 17.1 5 12 5C6.9 5 2.6 9.5 1.5 10.8C1.2 11.1 1 11.6 1 12C1 12.4 1.2 12.9 1.5 13.2C2.6 14.5 6.9 19 12 19C17.1 19 21.4 14.5 22.5 13.2C23.2 12.5 23.2 11.5 22.5 10.8ZM12 17C7.9 17 4.2 13.2 3.1 12C4.1 10.9 7.8 7 12 7C16.2 7 19.9 10.9 20.9 12C19.9 13.1 16.2 17 12 17Z" fill="#A1A0A5"/>
<path d="M12 9C10.3 9 9 10.3 9 12C9 13.7 10.3 15 12 15C13.7 15 15 13.7 15 12C15 10.3 13.7 9 12 9ZM12 13C11.4 13 11 12.6 11 12C11 11.4 11.4 11 12 11C12.6 11 13 11.4 13 12C13 12.6 12.6 13 12 13Z" fill="#A1A0A5"/>
</svg>
