<svg width="28" height="32" viewBox="0 0 28 32" fill="none" xmlns="http://www.w3.org/2000/svg">
<path d="M27.0666 32H5.60003C5.08452 32 4.66667 31.5225 4.66667 30.9333V6.39997C4.66667 5.81093 5.08452 5.33331 5.60003 5.33331H27.0666C27.5821 5.33331 28 5.81089 28 6.40001V30.9333C28 31.5225 27.5821 32 27.0666 32ZM26.2499 7.33335H6.41667V30H26.2499V7.33335ZM9.67642 11.3333H22.9902C23.5018 11.3333 23.9166 11.781 23.9166 12.3333C23.9166 12.8855 23.5018 13.3333 22.9902 13.3333H9.67642C9.16479 13.3333 8.74999 12.8856 8.74999 12.3333C8.74999 11.781 9.16479 11.3333 9.67642 11.3333ZM9.67642 17.3333H22.9902C23.5018 17.3333 23.9166 17.781 23.9166 18.3333C23.9166 18.8856 23.5018 19.3333 22.9902 19.3333H9.67642C9.16479 19.3333 8.74999 18.8856 8.74999 18.3333C8.74999 17.781 9.16479 17.3333 9.67642 17.3333ZM9.67642 24H22.9902C23.5018 24 23.9166 24.4477 23.9166 25C23.9166 25.5522 23.5018 26 22.9902 26H9.67642C9.16479 26 8.74999 25.5522 8.74999 25C8.74999 24.4477 9.16479 24 9.67642 24ZM21.5833 1.99997H1.75V24.6666H3.50001V26.6667H0.933327C0.417885 26.6667 0 26.1891 0 25.6V1.06666C0 0.477584 0.417885 0 0.933327 0H22.4C22.9154 0 23.3333 0.477584 23.3333 1.06666V4.00002H21.5833V1.99997Z" fill="black"/>
</svg>
