<svg width="20" height="20" viewBox="0 0 20 20" fill="none" xmlns="http://www.w3.org/2000/svg">
<path d="M5.666 8H3.03C2.84421 8.6504 2.7503 9.32359 2.751 10C2.751 10.694 2.848 11.365 3.031 12H5.667C5.557 11.36 5.501 10.693 5.501 10C5.501 9.307 5.557 8.64 5.667 8H5.666ZM6.683 8C6.55877 8.65936 6.49749 9.32904 6.5 10C6.5 10.698 6.56 11.365 6.683 12H9.5V8H6.683ZM8.148 17.011C7.08143 15.8767 6.30652 14.5002 5.89 13H3.398C3.84376 13.9783 4.50103 14.8455 5.32242 15.5391C6.14381 16.2327 7.10886 16.7354 8.148 17.011ZM9.5 16.941V13H6.933C7.403 14.506 8.258 15.817 9.5 16.942V16.941ZM8.148 2.99C7.10896 3.26548 6.14397 3.76804 5.32258 4.46146C4.5012 5.15488 3.84388 6.02189 3.398 7H5.89C6.30623 5.49988 7.08079 4.12338 8.147 2.989L8.148 2.99ZM9.5 3.06C8.258 4.182 7.404 5.493 6.933 7H9.5V3.058V3.06ZM14.334 8C14.444 8.64 14.5 9.307 14.5 10C14.5 10.693 14.444 11.36 14.334 12H16.971C17.153 11.365 17.25 10.694 17.25 10C17.25 9.306 17.153 8.635 16.97 8H14.334ZM13.317 8H10.5V12H13.317C13.439 11.365 13.5 10.698 13.5 10C13.5 9.302 13.44 8.635 13.317 8ZM11.852 17.011C12.8911 16.7354 13.8562 16.2327 14.6776 15.5391C15.499 14.8455 16.1562 13.9783 16.602 13H14.11C13.6938 14.5001 12.9192 15.8766 11.853 17.011H11.852ZM10.5 16.941C11.742 15.817 12.596 14.506 13.067 13H10.5V16.942V16.941ZM11.852 2.99C12.9184 4.12399 13.6933 5.50014 14.11 7H16.603C16.1572 6.02171 15.5 5.1545 14.6786 4.4609C13.8572 3.7673 12.8921 3.26459 11.853 2.989L11.852 2.99ZM10.5 3.06V7H13.067C12.597 5.494 11.742 4.183 10.5 3.058V3.06ZM10 18.5C7.74566 18.5 5.58365 17.6045 3.98959 16.0104C2.39553 14.4163 1.5 12.2543 1.5 10C1.5 7.74566 2.39553 5.58365 3.98959 3.98959C5.58365 2.39553 7.74566 1.5 10 1.5C12.2543 1.5 14.4163 2.39553 16.0104 3.98959C17.6045 5.58365 18.5 7.74566 18.5 10C18.5 12.2543 17.6045 14.4163 16.0104 16.0104C14.4163 17.6045 12.2543 18.5 10 18.5Z" fill="#BABABA"/>
</svg>
