<svg viewBox="0 0 24 24" fill="none" xmlns="http://www.w3.org/2000/svg">
<path d="M0 12C-2.34822e-08 13.5759 0.310389 15.1363 0.913445 16.5922C1.5165 18.0481 2.40042 19.371 3.51472 20.4853C4.62902 21.5996 5.95189 22.4835 7.4078 23.0866C8.86371 23.6896 10.4241 24 12 24C13.5759 24 15.1363 23.6896 16.5922 23.0866C18.0481 22.4835 19.371 21.5996 20.4853 20.4853C21.5996 19.371 22.4835 18.0481 23.0866 16.5922C23.6896 15.1363 24 13.5759 24 12C24 10.4241 23.6896 8.86371 23.0866 7.4078C22.4835 5.95189 21.5996 4.62902 20.4853 3.51472C19.371 2.40042 18.0481 1.5165 16.5922 0.913446C15.1363 0.310389 13.5759 0 12 0C10.4241 0 8.86371 0.310389 7.4078 0.913446C5.95189 1.5165 4.62902 2.40042 3.51472 3.51472C2.40042 4.62902 1.5165 5.95189 0.913445 7.4078C0.310389 8.86371 -2.34822e-08 10.4241 0 12Z" fill="#319EEC"/>
<path d="M19.0089 5.58984C16.7311 5.59964 15.0329 5.91324 13.8121 6.45504C12.8979 6.85964 12.5395 7.16624 12.5395 8.20224V18.7904C12.5402 18.8143 12.5476 18.8376 12.5606 18.8576C12.5737 18.8776 12.5921 18.8936 12.6137 18.9038C12.6361 18.9153 12.6615 18.9197 12.6865 18.9165C12.7115 18.9132 12.7349 18.9025 12.7537 18.8856C13.9801 17.8538 15.2289 17.4954 19.0943 17.4562C19.3603 17.4529 19.6143 17.345 19.8014 17.1559C19.9884 16.9667 20.0935 16.7115 20.0939 16.4454V6.60064C20.0939 6.33256 19.9874 6.07546 19.7978 5.8859C19.6082 5.69634 19.3511 5.58984 19.0831 5.58984H19.0089ZM10.1889 6.45504C8.96806 5.91324 7.26986 5.59964 4.99206 5.58984H4.92486C4.65678 5.58984 4.39968 5.69634 4.21012 5.8859C4.02056 6.07546 3.91406 6.33256 3.91406 6.60064V16.4454C3.91441 16.7115 4.01948 16.9667 4.20655 17.1559C4.39362 17.345 4.64764 17.4529 4.91366 17.4562C8.78046 17.4996 10.0279 17.8538 11.2543 18.8856C11.273 18.9025 11.2964 18.9132 11.3214 18.9165C11.3464 18.9197 11.3718 18.9153 11.3943 18.9038C11.4158 18.8936 11.4342 18.8776 11.4473 18.8576C11.4604 18.8376 11.4677 18.8143 11.4685 18.7904V8.20224C11.4685 7.16624 11.1101 6.85964 10.1959 6.45504H10.1889Z" fill="white"/>
</svg>
