<svg width="24" height="24" viewBox="0 0 24 24" fill="none" xmlns="http://www.w3.org/2000/svg">
<path d="M17.0017 21.7562H7.02432C4.96182 21.7562 3.28369 20.0781 3.28369 18.0156V13.0258C3.28369 10.9633 4.96182 9.28516 7.02432 9.28516H17.0017C19.0642 9.28516 20.7423 10.9633 20.7423 13.0258V18.0133C20.7423 20.0781 19.0642 21.7562 17.0017 21.7562ZM7.02432 10.7805C5.78682 10.7805 4.779 11.7883 4.779 13.0258V18.0133C4.779 19.2508 5.78682 20.2586 7.02432 20.2586H17.0017C18.2392 20.2586 19.247 19.2508 19.247 18.0133V13.0258C19.247 11.7883 18.2392 10.7805 17.0017 10.7805H7.02432Z" fill="#A1A0A5"/>
<path d="M18.2483 9.53359H16.7507C16.7507 6.93437 14.6366 3.79609 12.0116 3.79609C9.38662 3.79609 7.27256 6.93672 7.27256 9.53359H5.7749C5.7749 6.18906 8.49834 2.30078 12.0116 2.30078C15.5249 2.30078 18.2483 6.18906 18.2483 9.53359Z" fill="#A1A0A5"/>
</svg>
