<svg viewBox="0 0 36 36" fill="none" xmlns="http://www.w3.org/2000/svg">
<path d="M17.9996 10.4993C17.5995 10.5091 17.2015 10.4388 16.829 10.2924C16.4565 10.1461 16.117 9.92671 15.8306 9.64719C15.5441 9.36767 15.3165 9.03368 15.161 8.66486C15.0056 8.29604 14.9256 7.89985 14.9256 7.49962C14.9256 7.09939 15.0056 6.70321 15.161 6.33439C15.3165 5.96557 15.5441 5.63157 15.8306 5.35205C16.117 5.07254 16.4565 4.85315 16.829 4.70681C17.2015 4.56046 17.5995 4.49012 17.9996 4.49992C18.7825 4.5191 19.5268 4.84356 20.0737 5.40402C20.6206 5.96448 20.9268 6.71654 20.9268 7.49962C20.9268 8.28271 20.6206 9.03476 20.0737 9.59523C19.5268 10.1557 18.7825 10.4801 17.9996 10.4993Z" fill="white"/>
<path d="M21.0005 17.9996C21.0005 18.7954 20.6844 19.5586 20.1216 20.1214C19.5589 20.6841 18.7957 21.0002 17.9999 21.0002C17.2041 21.0002 16.4409 20.6841 15.8781 20.1214C15.3154 19.5586 14.9993 18.7954 14.9993 17.9996C14.9993 17.2038 15.3154 16.4406 15.8781 15.8779C16.4409 15.3152 17.2041 14.999 17.9999 14.999C18.7957 14.999 19.5589 15.3152 20.1216 15.8779C20.6844 16.4406 21.0005 17.2038 21.0005 17.9996Z" fill="white"/>
<path d="M17.9999 31.5002C17.2041 31.5002 16.4409 31.1841 15.8781 30.6214C15.3154 30.0586 14.9993 29.2954 14.9993 28.4996C14.9993 27.7038 15.3154 26.9406 15.8781 26.3779C16.4409 25.8152 17.2041 25.499 17.9999 25.499C18.7957 25.499 19.5589 25.8152 20.1216 26.3779C20.6844 26.9406 21.0005 27.7038 21.0005 28.4996C21.0005 29.2954 20.6844 30.0586 20.1216 30.6214C19.5589 31.1841 18.7957 31.5002 17.9999 31.5002Z" fill="white"/>
</svg>
