<svg width="30" height="30" viewBox="0 0 30 30" fill="none" xmlns="http://www.w3.org/2000/svg">
<path d="M29.6801 3.72265C29.7704 3.92654 29.8438 4.16441 29.9002 4.43626C29.9566 4.70811 29.9848 4.99129 29.9848 5.28579C29.9848 5.5803 29.9284 5.8748 29.8155 6.16931C29.7027 6.46381 29.5222 6.74699 29.274 7.01884C29.0032 7.29069 28.7606 7.52856 28.5462 7.73245C28.3318 7.93634 28.1457 8.11757 27.9877 8.27615C27.8072 8.45738 27.6379 8.61596 27.48 8.75189L21.1502 2.39738C21.421 2.14819 21.7425 1.84802 22.1149 1.49688C22.4872 1.14574 22.7975 0.868223 23.0457 0.664335C23.3617 0.415138 23.6889 0.239568 24.0274 0.137624C24.3658 0.0356804 24.6987 -0.00962804 25.0259 0.00169907C25.3531 0.0130262 25.669 0.0639982 25.9737 0.154615C26.2783 0.245232 26.5435 0.347176 26.7691 0.460447C27.243 0.709643 27.7677 1.14574 28.3431 1.76873C28.9185 2.39172 29.3642 3.04303 29.6801 3.72265ZM3.31171 20.3055C3.44711 20.1696 3.76303 19.8468 4.25949 19.3371C4.75594 18.8273 5.37651 18.1987 6.12118 17.4511L8.59217 14.9705L11.3339 12.218L18.6115 4.912L24.9413 11.3005L17.6637 18.6065L14.9558 21.359C14.0532 22.2425 13.2408 23.0524 12.5187 23.7886C11.7965 24.5249 11.1985 25.1309 10.7247 25.6066C10.2508 26.0824 9.9687 26.3542 9.87843 26.4222C9.65277 26.6261 9.39326 26.8413 9.09991 27.0678C8.80655 27.2944 8.5019 27.4756 8.18598 27.6115C7.87005 27.7701 7.40745 27.9627 6.79817 28.1892C6.18888 28.4157 5.55139 28.6366 4.88569 28.8518C4.21999 29.067 3.58815 29.2539 2.99014 29.4125C2.39214 29.5711 1.94646 29.673 1.65311 29.7184C1.04382 29.7863 0.637633 29.6957 0.434539 29.4465C0.231444 29.1973 0.175029 28.7782 0.265293 28.1892C0.310425 27.872 0.417614 27.4133 0.586859 26.813C0.756105 26.2126 0.936633 25.5896 1.12844 24.944C1.32026 24.2983 1.50643 23.7037 1.68695 23.16C1.86748 22.6163 2.01416 22.2425 2.12699 22.0386C2.26239 21.7214 2.41471 21.4326 2.58396 21.1721C2.7532 20.9115 2.99579 20.6227 3.31171 20.3055Z" fill="#0633B4"/>
</svg>
