<svg width="20" height="20" viewBox="0 0 20 20" fill="none" xmlns="http://www.w3.org/2000/svg">
<path d="M19.5075 17.2273L15.1203 12.9846C16.1699 11.6292 16.7922 9.94431 16.7922 8.11978C16.7922 3.63517 13.0335 0 8.39674 0C3.75872 0 0 3.63517 0 8.11978C0 12.6055 3.75875 16.2396 8.39677 16.2396C9.93077 16.2396 11.3689 15.8422 12.6064 15.1462L17.1315 19.5245C17.788 20.1585 18.8522 20.1585 19.5075 19.5245C20.1642 18.8905 20.1642 17.8614 19.5075 17.2273ZM8.39674 14.0745C4.99613 14.0745 2.23872 11.4087 2.23872 8.11978C2.23872 4.83206 4.99613 2.16502 8.39674 2.16502C11.7967 2.16502 14.5541 4.83206 14.5541 8.11978C14.5541 11.4087 11.7967 14.0745 8.39674 14.0745Z" fill="#AFAFAF"/>
</svg>
