<svg width="25" height="25" viewBox="0 0 25 25" fill="none" xmlns="http://www.w3.org/2000/svg">
<path d="M21.7604 6.81203C21.7083 5.89536 21.0417 5.13495 20.1458 4.95786C18.9792 4.78078 17.8229 4.50995 16.6875 4.17661C15.5938 3.73911 14.5729 3.15578 13.6458 2.43703C12.8958 1.93703 11.8958 1.9787 11.1875 2.55161C10.3125 3.31203 9.28125 3.88495 8.16667 4.20786C7.10417 4.64536 5.98958 4.92661 4.84375 5.03078C3.92708 5.14536 3.22917 5.90578 3.1875 6.83286V12.6558C3.27083 17.7495 9.23958 22.9266 12.5417 22.9266C15.7812 22.9266 20.9062 19.3224 21.6875 12.7599C21.8229 10.7704 21.8438 8.7912 21.7604 6.81203ZM20.0417 12.5933C19.3333 18.3537 14.8646 21.2495 12.5521 21.2495C11.5625 21.2495 9.625 20.312 7.84375 18.5204C5.97917 16.6454 4.89583 14.4995 4.85417 12.6349V6.87453C4.86458 6.77036 4.94792 6.68703 5.04167 6.67661C6.30208 6.55161 7.54167 6.24953 8.71875 5.77036C10.0104 5.37453 11.2292 4.70786 12.2396 3.82245C12.3229 3.75995 12.4167 3.73911 12.4792 3.73911C12.5312 3.73911 12.6042 3.74953 12.6771 3.7912C13.7083 4.58286 14.8438 5.2287 16.0521 5.70786L16.125 5.73911L16.1979 5.75995C17.3854 6.11411 18.6042 6.39536 19.8333 6.59328C19.9792 6.62453 20.0729 6.74953 20.0938 6.89536C20.1771 8.7912 20.1562 10.7079 20.0417 12.5933Z" fill="#A1A0A5"/>
<path d="M12.0522 15.5723C11.7293 15.8952 11.1981 15.8952 10.8752 15.5723L7.92725 12.6243C7.60433 12.3014 7.60433 11.7702 7.92725 11.4473C8.25016 11.1243 8.78141 11.1243 9.10433 11.4473L12.0522 14.3952C12.3752 14.7181 12.3752 15.2493 12.0522 15.5723Z" fill="#A1A0A5"/>
<path d="M17.0835 10.5521L12.0418 15.5938C11.7293 15.9062 11.2189 15.9062 10.896 15.5938C10.5835 15.2812 10.5835 14.7708 10.896 14.4479L15.9377 9.40625C16.2502 9.09375 16.7606 9.09375 17.0835 9.40625C17.396 9.71875 17.396 10.2292 17.0835 10.5521Z" fill="#A1A0A5"/>
</svg>
