<svg viewBox="0 0 28 27" fill="none" xmlns="http://www.w3.org/2000/svg">
<g clip-path="url(#clip0_242_1945)">
<path d="M8.13999 0.154297H20.4688V2.07567H8.13999V0.154297ZM1.97559 4.66632H26.6332V6.5877H1.97559V4.66632ZM10.9228 7.97429H12.8442V20.7338H10.9228V7.97429ZM15.7646 7.97429H17.686V20.7338H15.7646V7.97429Z" fill="#BABABA"/>
<path d="M21.2059 7.97363L19.9602 25.0803H8.64816L7.40087 7.97363H5.47949L6.80044 26.1098C6.81787 26.3525 6.92673 26.5795 7.10504 26.745C7.28335 26.9106 7.51783 27.0023 7.76112 27.0016H20.8601C21.1034 27.0023 21.3379 26.9106 21.5162 26.745C21.6945 26.5795 21.8033 26.3525 21.8208 26.1098L23.1337 7.97363H21.2059Z" fill="#BABABA"/>
</g>
<defs>
<clipPath id="clip0_242_1945">
<rect width="26.848" height="26.848" fill="white" transform="translate(0.879883 0.154297)"/>
</clipPath>
</defs>
</svg>
