<svg width="24" height="24" viewBox="0 0 24 24" fill="none" xmlns="http://www.w3.org/2000/svg">
<path d="M15.2414 12.5508C16.9008 11.482 18 9.61875 18 7.5C18 4.18594 15.3141 1.5 12 1.5C8.68594 1.5 6 4.18594 6 7.5C6 9.62109 7.09922 11.4844 8.76094 12.5508C4.96641 13.8867 2.25 17.5008 2.25 21.75V21.757C2.25 22.1672 2.5875 22.5 2.99766 22.5H21.0211C21.4242 22.5 21.7477 22.1742 21.75 21.7711V21.6961C21.7266 17.4586 19.0195 13.8773 15.2414 12.5508ZM8.81719 10.6828C7.96875 9.83203 7.5 8.70234 7.5 7.5C7.5 6.29766 7.96875 5.16797 8.81719 4.31719C9.66797 3.46875 10.7977 3 12 3C13.2023 3 14.332 3.46875 15.1828 4.31719C16.0312 5.16797 16.5 6.29766 16.5 7.5C16.5 8.70234 16.0312 9.83203 15.1828 10.6828C14.332 11.5312 13.2023 12 12 12C10.7977 12 9.66797 11.5312 8.81719 10.6828ZM3.78281 21.0023C3.85781 20.1539 4.06406 19.3289 4.39688 18.5414C4.81172 17.5594 5.40703 16.6758 6.16641 15.9188C6.92344 15.1617 7.80703 14.5664 8.78906 14.1492C9.80625 13.718 10.8867 13.5 12 13.5C13.1133 13.5 14.1914 13.7156 15.2039 14.1422C16.1836 14.5547 17.0648 15.1453 17.8195 15.8977C18.5766 16.65 19.1719 17.5266 19.5891 18.5039C19.9289 19.3008 20.1398 20.1375 20.2172 21.0023H3.78281Z" fill="#A1A0A5"/>
</svg>
