<svg width="24" height="24" viewBox="0 0 24 24" fill="none" xmlns="http://www.w3.org/2000/svg">
<path d="M21.5263 23.7671L12 14.2407L2.47371 23.7671C2.16514 24.0756 1.66286 24.0756 1.35257 23.7671L0.231429 22.6459C-0.0771429 22.3373 -0.0771429 21.8351 0.231429 21.5248L9.75943 12.0001L0.231429 2.47374C-0.0771429 2.16516 -0.0771429 1.66287 0.231429 1.35258L1.35257 0.231431C1.66114 -0.0771435 2.16343 -0.0771435 2.47371 0.231431L12 9.7578L21.5263 0.231431C21.8349 -0.0771435 22.3371 -0.0771435 22.6474 0.231431L23.7686 1.35258C24.0771 1.66116 24.0771 2.16345 23.7686 2.47374L14.2406 12.0001L23.7669 21.5265C24.0754 21.8351 24.0754 22.3373 23.7669 22.6476L22.6457 23.7688C22.3389 24.0774 21.8349 24.0774 21.5263 23.7671Z" fill="#7E7E7E"/>
</svg>
